<svg xmlns="http://www.w3.org/2000/svg" width="290" height="309" fill="none" viewBox="0 0 290 309"><rect width="290" height="309" fill="#7B341E" rx="29"/><path fill="#fff" d="M45.8924 266.256C45.8924 269.808 44.6284 272.32 42.1004 273.792C39.6044 275.264 36.3084 276 32.2124 276H21.1724V242.736H31.7324C35.5404 242.736 38.6124 243.408 40.9484 244.752C43.2844 246.064 44.4524 248.224 44.4524 251.232C44.4524 253.12 43.8764 254.672 42.7244 255.888C41.5724 257.104 40.1164 257.936 38.3564 258.384C40.4684 258.736 42.2444 259.536 43.6844 260.784C45.1564 262 45.8924 263.824 45.8924 266.256ZM36.5324 252.048C36.5324 250.736 36.1164 249.792 35.2844 249.216C34.4844 248.608 33.2044 248.304 31.4444 248.304H29.0444V256.032H31.7324C33.3964 256.032 34.6124 255.728 35.3804 255.12C36.1484 254.48 36.5324 253.456 36.5324 252.048ZM37.7804 265.92C37.7804 264.256 37.3004 263.072 36.3404 262.368C35.4124 261.664 34.0524 261.312 32.2604 261.312H29.0444V270.24H31.9244C33.7484 270.24 35.1724 269.936 36.1964 269.328C37.2524 268.72 37.7804 267.584 37.7804 265.92ZM58.2096 267.936C58.2096 269.12 58.4176 269.968 58.8336 270.48C59.2816 270.96 59.9376 271.2 60.8016 271.2C61.5696 271.2 62.3536 270.96 63.1536 270.48C63.9536 269.968 64.6096 269.28 65.1216 268.416V250.512H72.7056V276H66.0816L65.7456 273.024C64.9136 274.24 63.7936 275.184 62.3856 275.856C60.9776 276.496 59.4896 276.816 57.9216 276.816C55.5216 276.816 53.6976 276.128 52.4496 274.752C51.2336 273.344 50.6256 271.392 50.6256 268.896V250.512H58.2096V267.936ZM86.9909 239.568V276H79.4069V240.384L86.9909 239.568ZM103.599 250.512L95.1989 261.792L104.271 276H95.6309L87.2789 262.032L95.6789 250.512H103.599ZM115.772 267.936C115.772 269.12 115.98 269.968 116.396 270.48C116.844 270.96 117.5 271.2 118.364 271.2C119.132 271.2 119.916 270.96 120.716 270.48C121.516 269.968 122.172 269.28 122.684 268.416V250.512H130.268V276H123.644L123.308 273.024C122.476 274.24 121.356 275.184 119.948 275.856C118.54 276.496 117.052 276.816 115.484 276.816C113.084 276.816 111.26 276.128 110.012 274.752C108.796 273.344 108.188 271.392 108.188 268.896V250.512H115.772V267.936ZM189.655 266.256C189.655 268.336 189.111 270.176 188.023 271.776C186.935 273.376 185.367 274.624 183.319 275.52C181.303 276.384 178.903 276.816 176.119 276.816C170.615 276.816 166.231 275.216 162.967 272.016L166.951 267.6C169.479 269.84 172.471 270.96 175.927 270.96C177.591 270.96 178.919 270.608 179.911 269.904C180.935 269.168 181.447 268.16 181.447 266.88C181.447 265.664 181.015 264.72 180.151 264.048C179.319 263.344 177.751 262.64 175.447 261.936C171.543 260.752 168.775 259.36 167.143 257.76C165.511 256.16 164.695 254.096 164.695 251.568C164.695 249.584 165.239 247.856 166.327 246.384C167.447 244.912 168.951 243.792 170.839 243.024C172.759 242.256 174.887 241.872 177.223 241.872C182.119 241.872 186.087 243.312 189.127 246.192L185.431 250.464C184.311 249.536 183.095 248.848 181.783 248.4C180.503 247.92 179.175 247.68 177.799 247.68C176.263 247.68 175.047 247.968 174.151 248.544C173.287 249.088 172.855 249.888 172.855 250.944C172.855 251.648 173.047 252.24 173.431 252.72C173.847 253.2 174.519 253.648 175.447 254.064C176.375 254.48 177.767 254.976 179.623 255.552C183.015 256.576 185.527 257.904 187.159 259.536C188.823 261.136 189.655 263.376 189.655 266.256ZM215.988 268.656C215.988 269.584 216.116 270.272 216.372 270.72C216.628 271.168 217.06 271.504 217.668 271.728L216.084 276.72C214.548 276.56 213.268 276.224 212.244 275.712C211.22 275.168 210.42 274.384 209.844 273.36C208.884 274.48 207.668 275.344 206.196 275.952C204.724 276.528 203.156 276.816 201.492 276.816C198.868 276.816 196.772 276.08 195.204 274.608C193.636 273.104 192.852 271.168 192.852 268.8C192.852 266.048 193.94 263.92 196.116 262.416C198.292 260.88 201.348 260.112 205.284 260.112H208.692V259.2C208.692 256.576 207.012 255.264 203.652 255.264C202.788 255.264 201.7 255.392 200.388 255.648C199.108 255.872 197.86 256.192 196.644 256.608L194.916 251.568C196.548 250.96 198.244 250.496 200.004 250.176C201.796 249.824 203.412 249.648 204.852 249.648C212.276 249.648 215.988 252.656 215.988 258.672V268.656ZM204.084 271.392C204.948 271.392 205.812 271.152 206.676 270.672C207.572 270.16 208.244 269.472 208.692 268.608V264.432H206.82C202.724 264.432 200.676 265.712 200.676 268.272C200.676 269.264 200.964 270.032 201.54 270.576C202.148 271.12 202.996 271.392 204.084 271.392ZM230.897 239.568V276H223.313V240.384L230.897 239.568ZM247.505 250.512L239.105 261.792L248.177 276H239.537L231.185 262.032L239.585 250.512H247.505ZM259.678 267.936C259.678 269.12 259.886 269.968 260.302 270.48C260.75 270.96 261.406 271.2 262.27 271.2C263.038 271.2 263.822 270.96 264.622 270.48C265.422 269.968 266.078 269.28 266.59 268.416V250.512H274.174V276H267.55L267.214 273.024C266.382 274.24 265.262 275.184 263.854 275.856C262.446 276.496 260.958 276.816 259.39 276.816C256.99 276.816 255.166 276.128 253.918 274.752C252.702 273.344 252.094 271.392 252.094 268.896V250.512H259.678V267.936Z"/><g clip-path="url(#clip0)"><path fill="#fff" fill-rule="evenodd" d="M169.663 185.405C184.189 175.46 182.373 162.545 176.457 146.39C167.964 123.125 178.917 120.29 181.729 95.765C186.824 51.62 167.847 58.91 165.27 24.08C144.477 44.375 166.617 71.6 158.3 87.035C153.38 76.73 155.547 62.735 143.833 52.43C147.933 69.665 131.24 80.915 144.36 102.38C158.886 126.095 174.7 150.935 165.739 171.41C158.3 155.3 142.954 141.215 120.053 143.6C88.6585 146.84 81.4542 164.885 65.9328 174.785C78.9357 186.8 75.9485 204.665 102.54 212.495C127.023 219.695 155.137 214.25 165.153 192.83C168.433 198.14 168.609 207.32 172.416 213.395C176.281 219.515 182.783 222.575 185.184 216.68C173.939 207.95 176.691 196.115 169.721 185.36L169.663 185.405Z" clip-rule="evenodd"/></g><defs><clipPath id="clip0"><rect width="123" height="198" fill="#fff" transform="translate(62 23)"/></clipPath></defs></svg>