<svg height="832.564" viewBox="0 0 1115.914 832.564" width="1115.914" xmlns="http://www.w3.org/2000/svg"><path d="m389.957 255.282h144" fill="none" stroke="#3f3d56" stroke-miterlimit="10" stroke-width="2"/><ellipse cx="248.867" cy="443.498" fill="#2f2e41" rx="39.5" ry="12.4" transform="matrix(.3570287 -.93409342 .93409342 .3570287 -296.29734 483.90373)"/><path d="m1153.37778 543.01392c15.6657 116.58889-5.66624 233.30465-114.16871 278.75349s-233.30466-5.66624-278.75349-114.16871 61.78473-173.424 114.16871-278.75349c106.37626-213.89277 230.10403-247.89553 278.75349 114.16871z" fill="#f2f2f2" transform="translate(-42.04308 -33.7182)"/><ellipse cx="916" cy="794.436" fill="#3f3d56" rx="170" ry="23.127"/><g fill="#2f2e41"><path d="m858.752 753.632h24v43h-24z" transform="matrix(-.26643554 -.96385274 .96385274 -.26643554 313.59438 1787.2135)"/><ellipse cx="844.359" cy="777.24" rx="7.5" ry="20" transform="matrix(.96385274 -.26643554 .26643554 .96385274 -218.60626 219.34424)"/><ellipse cx="965.361" cy="688.069" rx="39.5" ry="12.4" transform="matrix(.1343129 -.99093897 .99093897 .1343129 111.82337 1518.54826)"/><circle cx="915.585" cy="728.299" r="79"/><path d="m858.752 739.632h24v43h-24z" transform="matrix(-.26643554 -.96385274 .96385274 -.26643554 327.08832 1769.4834)"/><ellipse cx="844.359" cy="763.24" rx="7.5" ry="20" transform="matrix(.96385274 -.26643554 .26643554 .96385274 -214.87616 218.83818)"/></g><circle cx="936.329" cy="683.043" fill="#fff" r="27"/><circle cx="944.963" cy="671.116" fill="#3f3d56" r="9"/><path d="m1048.85766 816.30571c29.23451-1.46311 51.62459-28.80779 50.00965-61.07607s-26.62336-57.24079-55.85786-55.77768-33.822 24.41244-32.20709 56.68072 8.8208 61.63614 38.0553 60.17303z" fill="#5a67d8" transform="translate(-42.04308 -33.7182)"/><path d="m925.34085 728.59207a18 18 0 0 1 -2.90424-35.88266c9.90873-.802 12.611 7.06452 13.413 16.97325s-.60004 18.10742-10.50876 18.90941z" fill="#fff" transform="translate(-42.04308 -33.7182)"/><path d="m49.464 361.025h442.493l68.603 33.422 109.306 53.252 71.468-133.812h202.24" fill="none" stroke="#3f3d56" stroke-miterlimit="10" stroke-width="2"/><circle cx="222.811" cy="375.025" fill="#5a67d8" r="13.685"/><circle cx="350.541" cy="361.025" fill="#5a67d8" r="13.685"/><circle cx="560.384" cy="394.478" fill="#5a67d8" r="13.685"/><circle cx="855.379" cy="313.887" fill="#5a67d8" r="13.685"/><circle cx="712.443" cy="367.108" fill="#5a67d8" r="13.685"/><circle cx="427.576" cy="581.441" fill="none" r="14.756" stroke="#3f3d56" stroke-miterlimit="10" stroke-width="2"/><ellipse cx="170" cy="809.436" fill="#3f3d56" rx="170" ry="23.127"/><circle cx="160.805" cy="696.436" fill="#2f2e41" r="79"/><path d="m124.805 758.436h24v43h-24z" fill="#2f2e41"/><path d="m172.805 758.436h24v43h-24z" fill="#2f2e41"/><ellipse cx="144.805" cy="801.936" fill="#2f2e41" rx="20" ry="7.5"/><ellipse cx="192.805" cy="800.936" fill="#2f2e41" rx="20" ry="7.5"/><circle cx="162.805" cy="676.436" fill="#fff" r="27"/><circle cx="162.805" cy="676.436" fill="#3f3d56" r="9"/><path d="m126.215 656.68687c-6.37889-28.56758 14.01185-57.43391 45.544-64.47476s62.2651 10.41 68.644 38.97759-14.51861 39.1038-46.05075 46.14465-61.7584 7.9201-68.13725-20.64748z" fill="#5a67d8" transform="translate(-42.04308 -33.7182)"/><circle cx="133.805" cy="469.436" fill="#2f2e41" r="79"/><path d="m97.805 531.436h24v43h-24z" fill="#2f2e41"/><path d="m145.805 531.436h24v43h-24z" fill="#2f2e41"/><ellipse cx="117.805" cy="574.936" fill="#2f2e41" rx="20" ry="7.5"/><ellipse cx="165.805" cy="573.936" fill="#2f2e41" rx="20" ry="7.5"/><circle cx="135.805" cy="449.436" fill="#fff" r="27"/><circle cx="135.805" cy="449.436" fill="#3f3d56" r="9"/><path d="m99.215 429.68687c-6.37889-28.56758 14.01185-57.43391 45.544-64.47476s62.2651 10.41 68.644 38.97759-14.51861 39.1038-46.05075 46.14465-61.7584 7.9201-68.13725-20.64748z" fill="#5a67d8" transform="translate(-42.04308 -33.7182)"/><ellipse cx="86.867" cy="466.498" fill="#2f2e41" rx="12.4" ry="39.5" transform="matrix(.42852927 -.9035279 .9035279 .42852927 -413.89514 311.35892)"/><path d="m137.04308 531.65459c0 7.732 19.90861 23 42 23s42.80455-21.768 42.80455-29.5-20.71316 1.5-42.80455 1.5-42-2.73198-42 5z" fill="#fff" transform="translate(-42.04308 -33.7182)"/><path d="m835.474 564.71h126.129v64.161h-126.129z" fill="#5a67d8"/><path d="m825.603 575.129h126.129v64.161h-126.129z" fill="none" stroke="#3f3d56" stroke-miterlimit="10" stroke-width="2"/><path d="m226.603 199h36v36h-36z" fill="#ff6584"/><path d="m217.603 187h36v36h-36z" fill="none" stroke="#3f3d56" stroke-miterlimit="10" stroke-width="2"/><circle cx="906.052" cy="189.47" fill="#2f2e41" r="79"/><path d="m974.585 279.578h24v43h-24z" fill="#2f2e41" transform="matrix(-.98401 .17813 -.17813 -.98401 1968.98075 387.87775)"/><path d="m927.353 288.128h24v43h-24z" fill="#2f2e41" transform="matrix(-.98400633 .17813349 -.17813349 -.98400633 1876.79468 413.25547)"/><ellipse cx="939.065" cy="336.103" fill="#2f2e41" rx="20" ry="7.5" transform="matrix(.76310773 -.6462713 .6462713 .76310773 -36.79955 652.79249)"/><ellipse cx="985.313" cy="327.731" fill="#2f2e41" rx="20" ry="7.5" transform="matrix(.76310773 -.6462713 .6462713 .76310773 -20.43292 680.69811)"/><circle cx="900.521" cy="170.146" fill="#fff" r="27"/><circle cx="889.424" cy="160.468" fill="#3f3d56" r="9"/><path d="m1010.41514 137.24473c1.188-29.247-24.01866-54.01935-56.30069-55.33066s-59.41488 21.335-60.60291 50.582 21.2521 35.89214 53.53414 37.20345 62.18143-3.20781 63.36946-32.45479z" fill="#5a67d8" transform="translate(-42.04308 -33.7182)"/><ellipse cx="875.15" cy="208.796" fill="#2f2e41" rx="12.4" ry="39.5" transform="matrix(.22342194 -.97472182 .97472182 .22342194 434.06107 981.45545)"/><ellipse cx="1030.224" cy="234.584" fill="#2f2e41" rx="12.4" ry="39.5" transform="matrix(.22342194 -.97472182 .97472182 .22342194 529.35145 1152.63631)"/><path d="m969.79256 254.32118a18 18 0 1 1 -35.42423 6.41281c-1.77085-9.78213 5.79238-13.24363 15.57451-15.01448s18.07887-1.18046 19.84972 8.60167z" fill="#fff" transform="translate(-42.04308 -33.7182)"/><path d="m712.603 99 91 70" fill="none" stroke="#3f3d56" stroke-miterlimit="10" stroke-width="2"/><circle cx="669.603" cy="68" fill="#ff6584" r="68"/><ellipse cx="935.71" cy="706.84" fill="#2f2e41" rx="39.5" ry="12.4" transform="matrix(.1343129 -.99093897 .99093897 .1343129 67.55305 1505.41525)"/><circle cx="68.811" cy="786.025" fill="#5a67d8" r="13.685"/><path d="m256.603 770h36v36h-36z" fill="#ff6584"/><circle cx="256.811" cy="794.025" fill="#5a67d8" r="13.685"/><circle cx="461.957" cy="255.025" fill="#5a67d8" r="13.685"/><circle cx="727.721" cy="679.252" fill="#ff6584" r="6.535"/><path d="m759.739 787.725v-74.412" fill="#3f3d56" stroke="#3f3d56" stroke-miterlimit="10" stroke-width="2"/><circle cx="759.739" cy="713.313" fill="#3f3d56" r="10.523"/><path d="m801.78241 792.89275s-1.50326-32.33193-32.32009-28.57378" fill="#3f3d56" transform="translate(-42.04308 -33.7182)"/></svg>