<svg xmlns="http://www.w3.org/2000/svg" xmlns:xlink="http://www.w3.org/1999/xlink" width="450" height="580" version="1" viewBox="0 0 414.772 500.994"><text x="67.249" y="10.538" font-family="DejaVu Sans" font-size="22">International Morse Code</text><text style="line-height:125%" x="50.912" y="55.327" font-family="Sans" font-size="11" font-weight="400" letter-spacing="0" transform="translate(0 -16.8) scale(.92172)" word-spacing="0"><tspan x="50.912" y="55.327">1. The length of a dot is one unit.</tspan> <tspan x="50.912" y="69.077">2. A dash is three units.</tspan> <tspan x="50.912" y="82.827">3. The space between parts of the same letter is one unit.</tspan> <tspan x="50.912" y="96.577">4. The space between letters is three units.</tspan> <tspan x="50.912" y="110.327">5. The space between words is seven units.</tspan></text><g transform="translate(-22.25)"><circle cx="39.4" cy="141.48" r="3.555" transform="translate(202.386 -57.34) scale(1.29636)"/><path d="M285.732 121.457h27.651v9.217h-27.651z"/><circle cx="39.4" cy="141.48" r="3.555" transform="translate(220.82 -57.34) scale(1.29636)"/><circle cx="39.4" cy="141.48" r="3.555" transform="translate(202.386 -38.906) scale(1.29636)"/><circle cx="39.4" cy="141.48" r="3.555" transform="translate(220.82 -38.906) scale(1.29636)"/><circle cx="39.4" cy="141.48" r="3.555" transform="translate(239.255 -38.906) scale(1.29636)"/><path d="M304.166 139.891h27.651v9.217h-27.651z"/><circle cx="39.4" cy="141.48" r="3.555" transform="translate(202.386 -20.472) scale(1.29636)"/><path d="M267.298 158.325h27.651v9.217h-27.651zm36.868 0h27.651v9.217h-27.651zm-55.303 18.435h27.651v9.217h-27.651z"/><circle cx="39.4" cy="141.48" r="3.555" transform="translate(239.255 -2.038) scale(1.29636)"/><circle cx="39.4" cy="141.48" r="3.555" transform="translate(257.689 -2.038) scale(1.29636)"/><path d="M322.6 176.76h27.651v9.217H322.6zm-73.737 18.434h27.651v9.217h-27.651zm55.303 0h27.651v9.217h-27.651zm36.869 0h27.651v9.217h-27.651z"/><circle cx="39.4" cy="141.48" r="3.555" transform="translate(239.255 16.397) scale(1.29636)"/><path d="M248.863 213.628h27.651v9.217h-27.651zm36.869 0h27.651v9.217h-27.651z"/><circle cx="39.4" cy="141.48" r="3.555" transform="translate(276.123 34.831) scale(1.29636)"/><circle cx="39.4" cy="141.48" r="3.555" transform="translate(294.557 34.831) scale(1.29636)"/><g font-family="DejaVu Sans" font-size="18" transform="translate(-1.85)"><text x="231.225" y="130.674">U</text><text x="231.748" y="149.108">V</text><text x="229.155" y="167.318">W</text><text x="231.734" y="185.977">X</text><text x="231.761" y="204.411">Y</text><text x="232.279" y="222.846">Z</text></g></g><g transform="translate(-3.816)"><circle id="c" cx="39.4" cy="141.48" r="3.555" transform="translate(-9.609 -57.34) scale(1.29636)"/><path id="a" d="M55.303 121.457h27.651v9.217H55.303z"/><circle cx="39.4" cy="141.48" r="3.555" transform="translate(27.496 -38.906) scale(1.29636)"/><circle cx="39.4" cy="141.48" r="3.555" transform="translate(45.694 -38.611) scale(1.29636)"/><circle cx="39.4" cy="141.48" r="3.555" transform="translate(64.123 -38.906) scale(1.29636)"/><path d="M36.869 158.325H64.52v9.217H36.869z"/><circle cx="39.4" cy="141.48" r="3.555" transform="translate(27.231 -20.472) scale(1.29636)"/><path d="M92.172 158.325h27.651v9.217H92.172z"/><circle cx="39.4" cy="141.48" r="3.555" transform="translate(82.624 -20.472) scale(1.29636)"/><path d="M36.869 176.76H64.52v9.217H36.869z"/><circle cx="39.4" cy="141.48" r="3.555" transform="translate(27.172 -2.038) scale(1.29636)"/><circle cx="39.4" cy="141.48" r="3.555" transform="translate(45.694 -1.86) scale(1.29636)"/><circle cx="39.4" cy="141.48" r="3.555" transform="translate(-9.609 16.397) scale(1.29636)"/><circle cx="39.4" cy="141.48" r="3.555" transform="translate(-9.609 34.831) scale(1.29636)"/><circle cx="39.4" cy="141.48" r="3.555" transform="translate(8.826 34.831) scale(1.29636)"/><path d="M73.737 213.628h27.651v9.217H73.737z"/><circle cx="39.4" cy="141.48" r="3.555" transform="translate(64.129 34.831) scale(1.29636)"/><path d="M36.869 232.063H64.52v9.217H36.869zm36.868 0h27.651v9.217H73.737z"/><circle cx="39.4" cy="141.48" r="3.555" transform="translate(64.129 53.265) scale(1.29636)"/><circle cx="39.4" cy="141.48" r="3.555" transform="translate(-9.609 71.7) scale(1.29636)"/><circle cx="39.4" cy="141.48" r="3.555" transform="translate(8.826 71.7) scale(1.29636)"/><circle cx="39.4" cy="141.48" r="3.555" transform="translate(27.26 71.7) scale(1.29636)"/><circle cx="39.4" cy="141.48" r="3.555" transform="translate(45.694 71.7) scale(1.29636)"/><circle cx="39.4" cy="141.48" r="3.555" transform="translate(-9.609 90.134) scale(1.29636)"/><circle cx="39.4" cy="141.48" r="3.555" transform="translate(8.826 90.134) scale(1.29636)"/><circle cx="39.4" cy="141.48" r="3.555" transform="translate(-9.609 108.568) scale(1.29636)"/><path d="M55.303 287.366h27.651v9.217H55.303zm36.869 0h27.651v9.217H92.172zm36.868 0h27.651v9.217H129.04zM36.869 305.8H64.52v9.217H36.869z"/><circle cx="39.4" cy="141.48" r="3.555" transform="translate(27.26 127.003) scale(1.29636)"/><path d="M92.172 305.8h27.651v9.217H92.172z"/><circle cx="39.4" cy="141.48" r="3.555" transform="translate(-9.609 145.437) scale(1.29636)"/><path d="M55.303 324.234h27.651v9.217H55.303z"/><circle cx="39.4" cy="141.48" r="3.555" transform="translate(45.694 145.437) scale(1.29636)"/><circle cx="39.4" cy="141.48" r="3.555" transform="translate(64.129 145.437) scale(1.29636)"/><path d="M36.869 342.669H64.52v9.217H36.869zm36.868 0h27.651v9.217H73.737zm-36.868 18.434H64.52v9.217H36.869z"/><circle cx="39.4" cy="141.48" r="3.555" transform="translate(27.26 182.306) scale(1.29636)"/><path d="M36.869 379.537H64.52v9.217H36.869zm36.868 0h27.651v9.217H73.737zm36.869 0h27.651v9.217h-27.651z"/><circle cx="39.4" cy="141.48" r="3.555" transform="translate(-9.609 219.174) scale(1.29636)"/><path d="M55.303 397.971h27.651v9.217H55.303zm36.869 0h27.651v9.217H92.172z"/><circle cx="39.4" cy="141.48" r="3.555" transform="translate(82.563 219.174) scale(1.29636)"/><path d="M36.869 416.406H64.52v9.217H36.869zm36.868 0h27.651v9.217H73.737z"/><circle cx="39.4" cy="141.48" r="3.555" transform="translate(64.129 237.609) scale(1.29636)"/><path d="M129.04 416.406h27.651v9.217H129.04z"/><circle cx="39.4" cy="141.48" r="3.555" transform="translate(-9.609 256.043) scale(1.29636)"/><path d="M55.303 434.84h27.651v9.217H55.303z"/><circle cx="39.4" cy="141.48" r="3.555" transform="translate(45.694 256.043) scale(1.29636)"/><circle cx="39.4" cy="141.48" r="3.555" transform="translate(27.26 274.477) scale(1.29636)"/><circle cx="39.4" cy="141.48" r="3.555" transform="translate(8.826 274.477) scale(1.29636)"/><circle cx="39.4" cy="141.48" r="3.555" transform="translate(-9.609 274.477) scale(1.29636)"/><path d="M36.869 471.709H64.52v9.217H36.869z"/><g font-family="DejaVu Sans" font-size="18"><text x="17.138" y="130.674">A</text><text x="16.954" y="149.108">B</text><text x="16.535" y="167.318">C</text><text x="16.409" y="185.977">D</text><text x="16.904" y="204.411">E</text><text x="17.323" y="222.846">F</text><text x="16.202" y="241.055">G</text><text x="16.634" y="259.714">H</text><text x="20.694" y="278.148">I</text><text x="19.145" y="296.583">J</text><text x="16.481" y="315.017">K</text><text x="17.813" y="333.451">L</text><text x="15.621" y="351.886">M</text><text x="16.684" y="370.32">N</text><text x="16.085" y="388.754">O</text><text x="16.058" y="425.623">Q</text><text x="16.828" y="407.189">P</text><text x="16.022" y="444.057">R</text><text x="17.206" y="462.492">S</text><text x="17.624" y="480.926">T</text></g><use width="414.772" height="500.994" transform="translate(-18.434 18.434)" xlink:href="#a"/></g><g transform="translate(-22.25 64.295)"><use id="z" width="414.772" height="500.994" transform="translate(211.995 119.823)" xlink:href="#a"/><use id="b" width="414.772" height="500.994" transform="translate(248.863 119.823)" xlink:href="#a"/><use id="A" width="414.772" height="500.994" xlink:href="#b"/><use id="B" width="414.772" height="500.994" transform="translate(285.732 119.823)" xlink:href="#a"/><use id="C" width="414.772" height="500.994" transform="translate(322.6 119.823)" xlink:href="#a"/><use width="414.772" height="500.994" transform="translate(211.995 119.823)" xlink:href="#c"/><use width="414.772" height="500.994" transform="translate(211.995 138.257)" xlink:href="#c"/><use width="414.772" height="500.994" transform="translate(230.429 138.257)" xlink:href="#c"/><use id="f" width="414.772" height="500.994" transform="translate(230.429 138.257)" xlink:href="#a"/><use width="414.772" height="500.994" transform="translate(267.298 138.257)" xlink:href="#a"/><use width="414.772" height="500.994" transform="translate(304.166 138.257)" xlink:href="#a"/><use id="d" width="414.772" height="500.994" transform="translate(211.995 156.692)" xlink:href="#c"/><use id="e" width="414.772" height="500.994" transform="translate(18.434)" xlink:href="#d"/><use id="q" width="414.772" height="500.994" transform="translate(18.434)" xlink:href="#e"/><use id="g" width="414.772" height="500.994" transform="translate(18.434 18.434)" xlink:href="#f"/><use id="r" width="414.772" height="500.994" transform="translate(36.869)" xlink:href="#g"/><use id="h" width="414.772" height="500.994" transform="translate(0 18.434)" xlink:href="#d"/><use id="i" width="414.772" height="500.994" transform="translate(18.434)" xlink:href="#h"/><use id="j" width="414.772" height="500.994" transform="translate(18.434)" xlink:href="#i"/><use id="o" width="414.772" height="500.994" transform="translate(18.434)" xlink:href="#j"/><use id="p" width="414.772" height="500.994" transform="translate(18.434 18.434)" xlink:href="#g"/><use id="k" width="414.772" height="500.994" transform="translate(0 18.434)" xlink:href="#h"/><use id="l" width="414.772" height="500.994" transform="translate(18.434)" xlink:href="#k"/><use id="m" width="414.772" height="500.994" transform="translate(18.434)" xlink:href="#l"/><use id="n" width="414.772" height="500.994" transform="translate(18.434)" xlink:href="#m"/><use width="414.772" height="500.994" transform="translate(18.434)" xlink:href="#n"/><use width="414.772" height="500.994" transform="translate(36.869 36.869)" xlink:href="#h"/><use width="414.772" height="500.994" transform="translate(36.869 36.869)" xlink:href="#i"/><use width="414.772" height="500.994" transform="translate(36.869 36.869)" xlink:href="#j"/><use width="414.772" height="500.994" transform="translate(36.869 36.869)" xlink:href="#o"/><use width="414.772" height="500.994" transform="translate(-73.737 36.869)" xlink:href="#p"/><use width="414.772" height="500.994" xlink:href="#d"/><use width="414.772" height="500.994" xlink:href="#e"/><use width="414.772" height="500.994" xlink:href="#q"/><use id="s" width="414.772" height="500.994" xlink:href="#g"/><use id="t" width="414.772" height="500.994" xlink:href="#r"/><use id="u" width="414.772" height="500.994" transform="translate(73.737 73.737)" xlink:href="#d"/><use id="v" width="414.772" height="500.994" transform="translate(73.737 73.737)" xlink:href="#e"/><use width="414.772" height="500.994" transform="translate(73.737 73.737)" xlink:href="#q"/><use id="w" width="414.772" height="500.994" transform="translate(-55.303 73.737)" xlink:href="#s"/><use id="x" width="414.772" height="500.994" transform="translate(-55.303 73.737)" xlink:href="#t"/><use width="414.772" height="500.994" transform="translate(36.869 18.434)" xlink:href="#u"/><use id="E" width="414.772" height="500.994" transform="translate(36.869 18.434)" xlink:href="#v"/><use id="y" width="414.772" height="500.994" transform="translate(36.869 18.434)" xlink:href="#w"/><use width="414.772" height="500.994" transform="translate(36.869 18.434)" xlink:href="#x"/><use width="414.772" height="500.994" transform="translate(-36.869)" xlink:href="#y"/><use id="F" width="414.772" height="500.994" transform="translate(-18.434 147.475)" xlink:href="#z"/><use id="G" width="414.772" height="500.994" transform="translate(-18.434 147.475)" xlink:href="#b"/><use id="H" width="414.772" height="500.994" transform="translate(-18.434 147.475)" xlink:href="#A"/><use id="I" width="414.772" height="500.994" transform="translate(-18.434 147.475)" xlink:href="#B"/><use id="D" width="414.772" height="500.994" transform="translate(-18.434 147.475)" xlink:href="#C"/><use width="414.772" height="500.994" transform="translate(-110.606 18.434)" xlink:href="#D"/><use width="414.772" height="500.994" transform="translate(18.434 18.434)" xlink:href="#E"/><use width="414.772" height="500.994" transform="translate(36.869 18.434)" xlink:href="#F"/><use width="414.772" height="500.994" transform="translate(36.869 18.434)" xlink:href="#G"/><use width="414.772" height="500.994" transform="translate(36.869 18.434)" xlink:href="#H"/><use width="414.772" height="500.994" transform="translate(36.869 18.434)" xlink:href="#I"/><use width="414.772" height="500.994" transform="translate(36.869 18.434)" xlink:href="#D"/><g font-family="DejaVu Sans" font-size="18"><text x="231.757" y="250.497">1</text><text x="231.284" y="268.931">2</text><text x="231.099" y="287.141">3</text><text x="231.397" y="305.8">4</text><text x="231.054" y="324.234">5</text><text x="231.144" y="342.669">6</text><text x="231.05" y="360.878">7</text><text x="231.099" y="379.537">8</text><text x="231.09" y="397.971">9</text><text x="231.126" y="416.406">0</text></g></g></svg>